# xmcd
#
# Track frame offsets:
#	150
#	11961
#	23248
#	39798
#	50910
#	63633
#	79994
#	97711
#	112379
#	127561
#	139113
#	154323
#	171853
#	184911
#	196740
#	213335
#	229155
#	240413
#	253171
#	268850
#	279224
#	296692
#	313102
#	326683
#	336350
#	349907
#
# Disc length: 4801 seconds
#
# Revision: 1
# Processed by: cddbd v1.5.2PL0 Copyright (c) Steve Scherf et al.
# Submitted via: audiograbber 1.83.01
#
DISCID=8912bf1a
DTITLE=Various Artist - Танцевальная Новинка 2005.7
DYEAR=1900
DGENRE=
TTITLE0=DJ Грув - Игрушка
TTITLE1=David Guetta ft. DJ Davis - The world is mine
TTITLE2=Чай вдвоем - Ты не одна, я не один (remix)
TTITLE3=Benny Benassi - Stop-go
TTITLE4=Глюкоза - Швайне (remix)
TTITLE5=J-Five - Find a way (unit remix)
TTITLE6=Валерия - Маленький самолет (remix)
TTITLE7=Bodyrockers - I like the way
TTITLE8=X-mode - Love story
TTITLE9=Global Deejays - What a feeling
TTITLE10=Демо - Утро, вторник, лето
TTITLE11=Xite - I like it (radio)
TTITLE12=DJ Кефир и Арсентьев - Мурка
TTITLE13=Papi Sanchez - Enamorame (dance remix)
TTITLE14=Бутлеги - Ля-ля-ля
TTITLE15=The New West Project - Encore
TTITLE16=Анита Цой - Это любовь (DJ Грув remix)
TTITLE17=Klubbheads - Sax-o-matic
TTITLE18=Reflex - Танцы
TTITLE19=Chemical Brothers - Believe
TTITLE20=Руки Вверх - Девочки колхозницы
TTITLE21=La Hope ft. John Kicade - Dreams are ten a panny
TTITLE22=Катя Чехова - Крылья
TTITLE23=Mike MH4 - Electrica salsa (royal gigolos remix)
TTITLE24=Света - Не надо больше
TTITLE25=Daft Punk - Robot rock
EXTD=
EXTT0=
EXTT1=
EXTT2=
EXTT3=
EXTT4=
EXTT5=
EXTT6=
EXTT7=
EXTT8=
EXTT9=
EXTT10=
EXTT11=
EXTT12=
EXTT13=
EXTT14=
EXTT15=
EXTT16=
EXTT17=
EXTT18=
EXTT19=
EXTT20=
EXTT21=
EXTT22=
EXTT23=
EXTT24=
EXTT25=
PLAYORDER=
